bozucu_refleks_KAPALI_x10_YAVAS4x
version=1
nRows=76
nColumns=15
inDegrees=yes
endheader
time	sacrum_pitch	sacrum_roll	sacrum_yaw	sacrum_x	sacrum_y	sacrum_z	sacroiliac_flx	hip_flx	hip_add	hip_int	knee_flx	ankle_flx	ankle_add	ankle_int
0.000000	22.370217	0.000000	0.000000	0.000000	0.672500	0.000000	3.700000	64.746804	-10.000000	0.000000	-107.691465	6.602731	-5.000000	0.000000
0.000800	22.370217	0.000000	0.000000	0.000000	0.672500	0.000000	3.700000	64.733386	-10.000000	0.000000	-107.699040	6.598429	-5.000000	0.000000
0.001600	22.370217	0.000000	0.000000	0.000000	0.672500	0.000000	3.700000	64.720443	-10.000000	0.000000	-107.708925	6.600914	-5.000000	0.000000
0.002400	22.370217	0.000000	0.000000	0.000000	0.672500	0.000000	3.700000	64.708301	-10.000000	0.000000	-107.721917	6.611132	-5.000000	0.000000
0.003200	22.370217	0.000000	0.000000	0.000000	0.672500	0.000000	3.700000	64.697297	-10.000000	0.000000	-107.738772	6.629153	-5.000000	0.000000
0.004000	22.370217	0.000000	0.000000	0.000000	0.672500	0.000000	3.700000	64.687778	-10.000000	0.000000	-107.760232	6.654609	-5.000000	0.000000
0.004800	22.370217	0.000000	0.000000	0.000000	0.672500	0.000000	3.700000	64.680076	-10.000000	0.000000	-107.787032	6.687400	-5.000000	0.000000
0.005600	22.370217	0.000000	0.000000	0.000000	0.672500	0.000000	3.700000	64.674508	-10.000000	0.000000	-107.819903	6.727718	-5.000000	0.000000
0.006400	22.370217	0.000000	0.000000	0.000000	0.672500	0.000000	3.700000	64.671380	-10.000000	0.000000	-107.859568	6.776020	-5.000000	0.000000
0.007200	22.370217	0.000000	0.000000	0.000000	0.672500	0.000000	3.700000	64.670971	-10.000000	0.000000	-107.906736	6.833184	-5.000000	0.000000
0.008000	22.370217	0.000000	0.000000	0.000000	0.672500	0.000000	3.700000	64.673407	-10.000000	0.000000	-107.961502	6.897174	-5.000000	0.000000
0.008800	22.370217	0.000000	0.000000	0.000000	0.672500	0.000000	3.700000	64.678672	-10.000000	0.000000	-108.023491	6.964644	-5.000000	0.000000
0.009600	22.370217	0.000000	0.000000	0.000000	0.672500	0.000000	3.700000	64.686702	-10.000000	0.000000	-108.092316	7.033507	-5.000000	0.000000
0.010400	22.370217	0.000000	0.000000	0.000000	0.672500	0.000000	3.700000	64.697402	-10.000000	0.000000	-108.167544	7.102076	-5.000000	0.000000
0.011200	22.370217	0.000000	0.000000	0.000000	0.672500	0.000000	3.700000	64.710652	-10.000000	0.000000	-108.248752	7.169576	-5.000000	0.000000
0.012000	22.370217	0.000000	0.000000	0.000000	0.672500	0.000000	3.700000	64.726298	-10.000000	0.000000	-108.335531	7.236543	-5.000000	0.000000
0.012800	22.370217	0.000000	0.000000	0.000000	0.672500	0.000000	3.700000	64.744181	-10.000000	0.000000	-108.427477	7.303499	-5.000000	0.000000
0.013600	22.370217	0.000000	0.000000	0.000000	0.672500	0.000000	3.700000	64.764172	-10.000000	0.000000	-108.524182	7.370243	-5.000000	0.000000
0.014400	22.370217	0.000000	0.000000	0.000000	0.672500	0.000000	3.700000	64.786135	-10.000000	0.000000	-108.625274	7.437097	-5.000000	0.000000
0.015200	22.370217	0.000000	0.000000	0.000000	0.672500	0.000000	3.700000	64.809936	-10.000000	0.000000	-108.730399	7.504417	-5.000000	0.000000
0.016000	22.370217	0.000000	0.000000	0.000000	0.672500	0.000000	3.700000	64.835438	-10.000000	0.000000	-108.839202	7.572452	-5.000000	0.000000
0.016800	22.370217	0.000000	0.000000	0.000000	0.672500	0.000000	3.700000	64.862507	-10.000000	0.000000	-108.951340	7.641371	-5.000000	0.000000
0.017600	22.370217	0.000000	0.000000	0.000000	0.672500	0.000000	3.700000	64.891015	-10.000000	0.000000	-109.066469	7.711169	-5.000000	0.000000
0.018400	22.370217	0.000000	0.000000	0.000000	0.672500	0.000000	3.700000	64.920847	-10.000000	0.000000	-109.184256	7.781732	-5.000000	0.000000
0.019200	22.370217	0.000000	0.000000	0.000000	0.672500	0.000000	3.700000	64.951890	-10.000000	0.000000	-109.304376	7.852865	-5.000000	0.000000
0.020000	22.370217	0.000000	0.000000	0.000000	0.672500	0.000000	3.700000	64.984043	-10.000000	0.000000	-109.426517	7.924384	-5.000000	0.000000
0.020800	22.370217	0.000000	0.000000	0.000000	0.672500	0.000000	3.700000	65.017204	-10.000000	0.000000	-109.550379	7.996083	-5.000000	0.000000
0.021600	22.370217	0.000000	0.000000	0.000000	0.672500	0.000000	3.700000	65.051274	-10.000000	0.000000	-109.675661	8.067731	-5.000000	0.000000
0.022400	22.370217	0.000000	0.000000	0.000000	0.672500	0.000000	3.700000	65.086157	-10.000000	0.000000	-109.802076	8.139156	-5.000000	0.000000
0.023200	22.370217	0.000000	0.000000	0.000000	0.672500	0.000000	3.700000	65.121791	-10.000000	0.000000	-109.929468	8.210832	-5.000000	0.000000
0.024000	22.370217	0.000000	0.000000	0.000000	0.672500	0.000000	3.700000	65.158142	-10.000000	0.000000	-110.057763	8.283220	-5.000000	0.000000
0.024800	22.370217	0.000000	0.000000	0.000000	0.672500	0.000000	3.700000	65.195209	-10.000000	0.000000	-110.186956	8.356832	-5.000000	0.000000
0.025600	22.370217	0.000000	0.000000	0.000000	0.672500	0.000000	3.700000	65.233006	-10.000000	0.000000	-110.317066	8.431959	-5.000000	0.000000
0.026400	22.370217	0.000000	0.000000	0.000000	0.672500	0.000000	3.700000	65.271550	-10.000000	0.000000	-110.448110	8.508682	-5.000000	0.000000
0.027200	22.370217	0.000000	0.000000	0.000000	0.672500	0.000000	3.700000	65.310859	-10.000000	0.000000	-110.580097	8.587001	-5.000000	0.000000
0.028000	22.370217	0.000000	0.000000	0.000000	0.672500	0.000000	3.700000	65.350951	-10.000000	0.000000	-110.713041	8.666896	-5.000000	0.000000
0.028800	22.370217	0.000000	0.000000	0.000000	0.672500	0.000000	3.700000	65.391840	-10.000000	0.000000	-110.846949	8.748324	-5.000000	0.000000
0.029600	22.370217	0.000000	0.000000	0.000000	0.672500	0.000000	3.700000	65.433542	-10.000000	0.000000	-110.981838	8.831246	-5.000000	0.000000
0.030400	22.370217	0.000000	0.000000	0.000000	0.672500	0.000000	3.700000	65.476060	-10.000000	0.000000	-111.117682	8.915455	-5.000000	0.000000
0.031200	22.370217	0.000000	0.000000	0.000000	0.672500	0.000000	3.700000	65.519379	-10.000000	0.000000	-111.254366	9.000552	-5.000000	0.000000
0.032000	22.370217	0.000000	0.000000	0.000000	0.672500	0.000000	3.700000	65.563468	-10.000000	0.000000	-111.391727	9.086136	-5.000000	0.000000
0.032800	22.370217	0.000000	0.000000	0.000000	0.672500	0.000000	3.700000	65.608274	-10.000000	0.000000	-111.529534	9.171768	-5.000000	0.000000
0.033600	22.370217	0.000000	0.000000	0.000000	0.672500	0.000000	3.700000	65.653742	-10.000000	0.000000	-111.667567	9.257200	-5.000000	0.000000
0.034400	22.370217	0.000000	0.000000	0.000000	0.672500	0.000000	3.700000	65.699813	-10.000000	0.000000	-111.805620	9.342271	-5.000000	0.000000
0.035200	22.370217	0.000000	0.000000	0.000000	0.672500	0.000000	3.700000	65.746429	-10.000000	0.000000	-111.943500	9.426850	-5.000000	0.000000
0.036000	22.370217	0.000000	0.000000	0.000000	0.672500	0.000000	3.700000	65.793536	-10.000000	0.000000	-112.081025	9.510848	-5.000000	0.000000
0.036800	22.370217	0.000000	0.000000	0.000000	0.672500	0.000000	3.700000	65.841076	-10.000000	0.000000	-112.218029	9.594196	-5.000000	0.000000
0.037600	22.370217	0.000000	0.000000	0.000000	0.672500	0.000000	3.700000	65.888999	-10.000000	0.000000	-112.354369	9.676889	-5.000000	0.000000
0.038400	22.370217	0.000000	0.000000	0.000000	0.672500	0.000000	3.700000	65.937275	-10.000000	0.000000	-112.490000	9.759198	-5.000000	0.000000
0.039200	22.370217	0.000000	0.000000	0.000000	0.672500	0.000000	3.700000	65.985892	-10.000000	0.000000	-112.624936	9.841384	-5.000000	0.000000
0.040000	22.370217	0.000000	0.000000	0.000000	0.672500	0.000000	3.700000	66.034875	-10.000000	0.000000	-112.759333	9.923998	-5.000000	0.000000
0.040800	22.370217	0.000000	0.000000	0.000000	0.672500	0.000000	3.700000	66.084268	-10.000000	0.000000	-112.893376	10.007328	-5.000000	0.000000
0.041600	22.370217	0.000000	0.000000	0.000000	0.672500	0.000000	3.700000	66.134115	-10.000000	0.000000	-113.027241	10.091511	-5.000000	0.000000
0.042400	22.370217	0.000000	0.000000	0.000000	0.672500	0.000000	3.700000	66.184464	-10.000000	0.000000	-113.161100	10.176635	-5.000000	0.000000
0.043200	22.370217	0.000000	0.000000	0.000000	0.672500	0.000000	3.700000	66.235358	-10.000000	0.000000	-113.295121	10.262780	-5.000000	0.000000
0.044000	22.370217	0.000000	0.000000	0.000000	0.672500	0.000000	3.700000	66.286842	-10.000000	0.000000	-113.429464	10.350011	-5.000000	0.000000
0.044800	22.370217	0.000000	0.000000	0.000000	0.672500	0.000000	3.700000	66.338956	-10.000000	0.000000	-113.564285	10.438387	-5.000000	0.000000
0.045600	22.370217	0.000000	0.000000	0.000000	0.672500	0.000000	3.700000	66.391731	-10.000000	0.000000	-113.699675	10.527747	-5.000000	0.000000
0.046400	22.370217	0.000000	0.000000	0.000000	0.672500	0.000000	3.700000	66.445166	-10.000000	0.000000	-113.835644	10.617832	-5.000000	0.000000
0.047200	22.370217	0.000000	0.000000	0.000000	0.672500	0.000000	3.700000	66.499221	-10.000000	0.000000	-113.972030	10.707915	-5.000000	0.000000
0.048000	22.370217	0.000000	0.000000	0.000000	0.672500	0.000000	3.700000	66.553790	-10.000000	0.000000	-114.108504	10.797251	-5.000000	0.000000
0.048800	22.370217	0.000000	0.000000	0.000000	0.672500	0.000000	3.700000	66.608760	-10.000000	0.000000	-114.244767	10.885581	-5.000000	0.000000
0.049600	22.370217	0.000000	0.000000	0.000000	0.672500	0.000000	3.700000	66.664017	-10.000000	0.000000	-114.380543	10.972749	-5.000000	0.000000
0.050400	22.370217	0.000000	0.000000	0.000000	0.672500	0.000000	3.700000	66.719452	-10.000000	0.000000	-114.515581	11.058630	-5.000000	0.000000
0.051200	22.370217	0.000000	0.000000	0.000000	0.672500	0.000000	3.700000	66.774958	-10.000000	0.000000	-114.649648	11.143130	-5.000000	0.000000
0.052000	22.370217	0.000000	0.000000	0.000000	0.672500	0.000000	3.700000	66.830433	-10.000000	0.000000	-114.782537	11.226175	-5.000000	0.000000
0.052800	22.370217	0.000000	0.000000	0.000000	0.672500	0.000000	3.700000	66.885777	-10.000000	0.000000	-114.914069	11.307751	-5.000000	0.000000
0.053600	22.370217	0.000000	0.000000	0.000000	0.672500	0.000000	3.700000	66.940910	-10.000000	0.000000	-115.044130	11.387996	-5.000000	0.000000
0.054400	22.370217	0.000000	0.000000	0.000000	0.672500	0.000000	3.700000	66.995766	-10.000000	0.000000	-115.172680	11.467178	-5.000000	0.000000
0.055200	22.370217	0.000000	0.000000	0.000000	0.672500	0.000000	3.700000	67.050348	-10.000000	0.000000	-115.299940	11.546276	-5.000000	0.000000
0.056000	22.370217	0.000000	0.000000	0.000000	0.672500	0.000000	3.700000	67.104689	-10.000000	0.000000	-115.426141	11.625652	-5.000000	0.000000
0.056800	22.370217	0.000000	0.000000	0.000000	0.672500	0.000000	3.700000	67.158825	-10.000000	0.000000	-115.551497	11.705485	-5.000000	0.000000
0.057600	22.370217	0.000000	0.000000	0.000000	0.672500	0.000000	3.700000	67.212795	-10.000000	0.000000	-115.676216	11.785931	-5.000000	0.000000
0.058400	22.370217	0.000000	0.000000	0.000000	0.672500	0.000000	3.700000	67.266641	-10.000000	0.000000	-115.800503	11.867113	-5.000000	0.000000
0.059200	22.370217	0.000000	0.000000	0.000000	0.672500	0.000000	3.700000	67.320400	-10.000000	0.000000	-115.924545	11.949116	-5.000000	0.000000
0.060000	22.370217	0.000000	0.000000	0.000000	0.672500	0.000000	3.700000	67.374107	-10.000000	0.000000	-116.048506	12.031979	-5.000000	0.000000
